Coordinates
version=1
nRows=17
nColumns=24
inDegrees=yes

Units are S.I. units (second, meters, Newtons, ...)
Angles are in degrees.

endheader
time	pelvis_tilt	pelvis_list	pelvis_rotation	pelvis_tx	pelvis_ty	pelvis_tz	hip_flexion_r	hip_adduction_r	hip_rotation_r	knee_angle_r	ankle_angle_r	subtalar_angle_r	mtp_angle_r	hip_flexion_l	hip_adduction_l	hip_rotation_l	knee_angle_l	ankle_angle_l	subtalar_angle_l	mtp_angle_l	lumbar_extension	lumbar_bending	lumbar_rotation
      4.55000000	      3.92294917	     -1.83045782	      0.19963204	     -2.54291309	      0.91385075	      0.17313746	     16.43470345	      5.26290705	     -5.48798223	     -0.67730877	      5.48217227	      1.29513341	      0.00000000	    -18.06153271	      2.11876788	     -0.70214932	     -9.92783107	     17.19962560	     -4.96475356	      0.00000000	    -20.39256930	      2.33915300	     -6.60892176
      4.56000000	      4.21366396	     -1.98501983	      0.22401916	     -2.53107816	      0.91390571	      0.17445829	     15.95466293	      5.54600655	     -4.19255289	     -1.59983448	      4.32926816	      0.23189688	      0.00000000	    -18.31059759	      1.77779011	     -1.03519597	    -11.52278148	     16.75036893	     -4.46688231	      0.00000000	    -20.45247344	      2.49546575	     -6.62096996
      4.57000000	      4.51286786	     -2.18036753	      0.23237292	     -2.51912237	      0.91428220	      0.17589589	     15.40795627	      5.90139817	     -2.81993163	     -2.45097479	      2.87306969	     -1.01278620	      0.00000000	    -18.42236527	      1.36032390	     -1.55584903	    -13.37041859	     16.14937714	     -3.77165438	      0.00000000	    -20.50224961	      2.68264491	     -6.55815904
      4.58000000	      4.84794145	     -2.43537118	      0.22821093	     -2.50709213	      0.91505512	      0.17741778	     14.79190366	      6.33671897	     -1.57565080	     -3.25468009	      1.32770106	     -2.22436068	      0.00000000	    -18.40900207	      0.84331292	     -2.24613201	    -15.48102606	     15.31552569	     -2.96931291	      0.00000000	    -20.58484466	      2.93008247	     -6.43131904
      4.59000000	      5.13033484	     -2.70587413	      0.17527656	     -2.49510735	      0.91609584	      0.17903343	     14.25005396	      6.79984563	     -0.48688247	     -4.09376552	     -0.18502910	     -3.32307355	      0.00000000	    -18.14027005	      0.28285494	     -3.09222826	    -17.88946449	     14.21377652	     -2.22244065	      0.00000000	    -20.60809179	      3.17595882	     -6.22809229
      4.60000000	      5.40561044	     -2.97639338	      0.09337535	     -2.48321311	      0.91743272	      0.18069697	     13.74200613	      7.26029153	      0.33871154	     -4.99170107	     -1.35549854	     -4.31022162	      0.00000000	    -17.66151512	     -0.31209899	     -4.00747312	    -20.57290546	     12.64853400	     -1.60037230	      0.00000000	    -20.63939500	      3.41099458	     -5.98416870
      4.61000000	      5.65329869	     -3.22882112	     -0.01379685	     -2.47150060	      0.91898021	      0.18235756	     13.31389936	      7.68197415	      0.80882587	     -6.00184367	     -2.08958750	     -4.91649960	      0.00000000	    -16.93812029	     -0.92498056	     -4.96757227	    -23.51600953	     10.63308386	     -1.28438507	      0.00000000	    -20.66373051	      3.62123485	     -5.69815376
      4.62000000	      5.93026140	     -3.47968484	     -0.11639218	     -2.46000110	      0.92073901	      0.18399051	     12.86299176	      8.06865470	      0.87860801	     -7.03739804	     -2.37617024	     -5.09042996	      0.00000000	    -16.04094044	     -1.58289737	     -5.88847575	    -26.68381002	      8.11696219	     -1.24178902	      0.00000000	    -20.76669645	      3.82926408	     -5.39491298
      4.63000000	      6.08381842	     -3.68128923	     -0.22654331	     -2.44878065	      0.92238262	      0.18561448	     12.53059761	      8.38441348	      0.88737714	     -8.05851620	     -2.26771856	     -5.29713459	      0.00000000	    -14.79486858	     -2.23202183	     -6.72265026	    -30.07403591	      5.16189763	     -1.60336030	      0.00000000	    -20.76128312	      3.97397675	     -5.11181645
      4.64000000	      6.21373635	     -3.87710542	     -0.28140051	     -2.43784571	      0.92400587	      0.18710620	     12.18433577	      8.65278151	      0.66126853	     -8.99846020	     -1.83625835	     -5.20262277	      0.00000000	    -13.35430907	     -2.89832569	     -7.31928032	    -33.57361664	      1.76738735	     -2.45316432	      0.00000000	    -20.77811424	      4.13385972	     -4.86675360
      4.65000000	      6.32343818	     -4.08048033	     -0.26424700	     -2.42719225	      0.92556262	      0.18843743	     11.79467664	      8.88833237	      0.21313594	     -9.79774745	     -1.10151711	     -4.73810308	      0.00000000	    -11.74755077	     -3.58566575	     -7.66906035	    -37.12950453	     -1.84266999	     -3.63683681	      0.00000000	    -20.82884894	      4.32718700	     -4.70989785
      4.66000000	      6.41724766	     -4.33253823	     -0.19014660	     -2.41678494	      0.92701250	      0.18960400	     11.35944648	      9.13811229	     -0.50637315	    -10.45423719	     -0.12229301	     -3.90413256	      0.00000000	    -10.02044702	     -4.31680213	     -7.80596858	    -40.67865040	     -5.31871681	     -4.95692630	      0.00000000	    -20.91680193	      4.60521015	     -4.48451849
      4.67000000	      6.46800022	     -4.58939118	     -0.02961608	     -2.40659321	      0.92832007	      0.19057765	     10.85864526	      9.38749519	     -1.10311485	    -10.88635835	      0.81512115	     -3.25531409	      0.00000000	     -8.17087233	     -5.01689972	     -7.66327882	    -44.14577800	     -8.41792211	     -6.30617614	      0.00000000	    -20.99531132	      4.91498696	     -4.33515061
      4.68000000	      6.48841219	     -4.83812375	      0.20757211	     -2.39657974	      0.92952616	      0.19136601	     10.28596711	      9.63289856	     -1.58016361	    -11.10554144	      1.62602538	     -2.86418621	      0.00000000	     -6.24876790	     -5.65213738	     -7.28971498	    -47.45178162	    -10.84696040	     -7.50807580	      0.00000000	    -21.07313759	      5.23609027	     -4.24212188
      4.69000000	      6.55562924	     -5.12230357	      0.49917205	     -2.38667303	      0.93077625	      0.19194768	      9.59148742	      9.89432115	     -2.28977127	    -11.17278648	      2.59186381	     -1.97841952	      0.00000000	     -4.38744885	     -6.24904792	     -6.75893483	    -50.51101302	    -12.28929322	     -8.45969769	      0.00000000	    -21.23306884	      5.62803212	     -4.11241489
      4.70000000	      6.56397375	     -5.35092607	      0.82310865	     -2.37690068	      0.93194273	      0.19242941	      8.87273684	     10.12857573	     -2.72827115	    -11.06447103	      3.31426800	     -1.63660514	      0.00000000	     -2.47921223	     -6.70958935	     -6.11909679	    -53.27499732	    -12.77923275	     -9.17038902	      0.00000000	    -21.33920697	      5.95090118	     -4.00909860
      4.71000000	      6.57587912	     -5.54250160	      1.14394863	     -2.36720543	      0.93316768	      0.19280915	      8.09572335	     10.32416657	     -3.23446078	    -10.84692243	      4.05937612	     -1.05480618	      0.00000000	     -0.64508992	     -7.04345114	     -5.44678982	    -55.65256429	    -12.23046796	     -9.66296912	      0.00000000	    -21.45472461	      6.23398689	     -3.88611775
